<svg width="48" height="57" viewBox="0 0 48 57" fill="none" xmlns="http://www.w3.org/2000/svg">
<path fill-rule="evenodd" clip-rule="evenodd" d="M36.4567 9.11004C35.573 9.52354 34.5694 10.1186 33.5034 10.8313C31.0033 12.503 28.2793 14.7408 26.1472 16.5507C25.5869 17.0263 25.071 17.4693 24.611 17.8643C24.4507 18.002 24.2971 18.1339 24.1508 18.2593C23.7315 18.6187 23.1002 18.5701 22.7408 18.1508C22.3813 17.7315 22.4299 17.1002 22.8492 16.7407C22.9931 16.6174 23.1451 16.4869 23.3045 16.35C23.5517 16.1377 23.8166 15.9102 24.0963 15.6709L23.2339 14.6426C22.8789 14.2195 22.9342 13.5888 23.3574 13.2338C23.7805 12.8789 24.4113 12.9342 24.7662 13.3574L25.6214 14.377C27.4035 12.8809 29.5286 11.1612 31.5876 9.71946L31.1546 9.03409C30.8596 8.56717 30.999 7.94954 31.4659 7.65457C31.9329 7.3596 32.5505 7.499 32.8454 7.96591L33.2523 8.60995C34.0656 8.09851 34.861 7.64854 35.6091 7.29852C36.5969 6.83639 37.6018 6.5 38.5 6.5C42.1226 6.5 43.3988 6.98459 44.2071 7.79289C44.5976 8.18342 44.5976 8.81658 44.2071 9.20711C43.8166 9.59763 43.1834 9.59763 42.7929 9.20711C42.6012 9.01541 42.0775 8.5 38.5 8.5C38.0461 8.5 37.3631 8.68599 36.4567 9.11004ZM45.7179 10.5406C46.2477 10.3848 46.8035 10.688 46.9594 11.2178C48.2787 15.7034 47.5299 18.8078 45.9113 20.8678C44.337 22.8715 42.0812 23.7036 40.6961 23.9806C39.3705 24.2457 38.5091 24.2589 37.876 24.1798C37.7411 24.1629 37.6204 24.1423 37.5139 24.121C37.5004 24.1516 37.4864 24.1835 37.4719 24.2168C37.2545 24.7172 36.964 25.4464 36.6215 26.3417C35.938 28.1281 35.0661 30.5258 34.1912 32.9629C33.663 34.4343 33.136 35.9138 32.6495 37.2794C32.3298 38.1771 32.0276 39.0255 31.7541 39.7899C31.4102 40.7512 31.112 41.5792 30.8837 42.1991C30.6684 42.7837 30.4885 43.2591 30.3944 43.4472C30.3723 43.4916 30.349 43.5414 30.3236 43.5955C30.1354 43.9978 29.8362 44.6374 29.0722 45.0194C28.3319 45.3896 27.2248 45.5 25.5 45.5C23.9919 45.5 22.6684 46.0383 21.5636 46.6779C21.0119 46.9973 20.5275 47.3343 20.1019 47.636C20.0584 47.6669 20.0144 47.6982 19.97 47.7299C19.62 47.9791 19.2476 48.2442 18.9472 48.3944C18.1983 48.7689 17.4353 48.7685 16.8504 48.6546L10.7761 56.1306C10.4279 56.5592 9.79806 56.6244 9.36943 56.2761C8.94079 55.9278 8.87564 55.298 9.2239 54.8694L12.9985 50.2237L5.94331 43.08L1.65081 46.7593C1.23148 47.1187 0.600184 47.0701 0.240761 46.6508C-0.118661 46.2315 -0.070099 45.6002 0.349227 45.2407L6.8816 39.6416C6.64289 38.6623 6.34267 37.3771 6.08423 36.1573C5.92653 35.4129 5.78277 34.6853 5.67796 34.0629C5.57683 33.4624 5.50002 32.8933 5.50002 32.5C5.50002 31.9523 5.72432 31.4322 5.98306 30.9951C6.25203 30.5406 6.6225 30.0698 7.04898 29.5973C7.7302 28.8427 8.6117 28.0213 9.59539 27.1769L8.73167 26.14C8.37819 25.7157 8.43564 25.0851 8.85998 24.7317C9.28433 24.3782 9.91488 24.4356 10.2684 24.86L11.1343 25.8994C12.854 24.5119 14.7717 23.076 16.5212 21.7659C16.7186 21.6181 16.9138 21.4719 17.1064 21.3276L16.1956 20.094C15.8675 19.6497 15.9617 19.0236 16.406 18.6955C16.8503 18.3675 17.4764 18.4617 17.8045 18.906L18.7034 20.1234C19.1221 19.8047 19.5171 19.5005 19.8822 19.2137C20.3165 18.8725 20.9451 18.9479 21.2863 19.3822C21.6276 19.8165 21.5521 20.4451 21.1178 20.7863C20.5103 21.2637 19.8274 21.7836 19.1017 22.3302C18.6493 22.671 18.1804 23.0222 17.7017 23.3806C15.6869 24.8894 13.4989 26.528 11.6383 28.0705C10.3718 29.1205 9.29051 30.0989 8.53361 30.9374C8.15466 31.3573 7.87949 31.7176 7.70418 32.0137C7.51864 32.3272 7.50002 32.4773 7.50002 32.5C7.50002 32.7067 7.5482 33.1251 7.6502 33.7308C7.74851 34.3147 7.88601 35.0121 8.0408 35.7427C8.32026 37.0618 8.65087 38.4645 8.8949 39.4543L12.6585 42.7474C13.0742 43.1111 13.1163 43.7429 12.7526 44.1585C12.3889 44.5741 11.7571 44.6163 11.3415 44.2526L7.99327 41.3229L7.46561 41.7751L14.2673 48.6622L15.0885 47.6514L13.3753 46.2809C12.9441 45.9359 12.8741 45.3066 13.2191 44.8753C13.5642 44.444 14.1935 44.3741 14.6247 44.7191L17.0199 46.6353C17.1031 46.6648 17.24 46.7023 17.4061 46.7158C17.6303 46.734 17.8546 46.7047 18.0528 46.6056C18.2051 46.5294 18.4429 46.3607 18.8665 46.0603L18.945 46.0046C19.3788 45.697 19.9257 45.3152 20.5615 44.9471C21.8317 44.2117 23.5081 43.5 25.5 43.5C27.2752 43.5 27.9181 43.3604 28.1778 43.2306C28.2058 43.2166 28.2271 43.2062 28.2462 43.1926C28.3179 43.1419 28.3584 43.0472 28.6056 42.5528C28.6043 42.5554 28.6145 42.5343 28.6399 42.4727C28.663 42.4169 28.6925 42.3427 28.7287 42.2493C28.8009 42.0629 28.8944 41.8135 29.0069 41.5079C29.2318 40.8974 29.5273 40.0769 29.871 39.1163C30.1423 38.3577 30.4438 37.5114 30.7633 36.6144C31.2509 35.2456 31.7804 33.759 32.3088 32.2871C33.184 29.8492 34.062 27.4344 34.7535 25.627C35.0985 24.7255 35.4018 23.9625 35.6375 23.4199C35.7538 23.1522 35.863 22.9164 35.9588 22.7389C36.0042 22.6547 36.0643 22.5501 36.1358 22.4546C36.1698 22.4094 36.2325 22.3305 36.3228 22.2534C36.3815 22.2033 36.6237 22 37 22C37.2529 22 37.4879 22.0595 37.6207 22.0931C37.6306 22.0956 37.64 22.098 37.6488 22.1002C37.8003 22.138 37.9381 22.172 38.1241 22.1952C38.491 22.2411 39.1295 22.2543 40.3039 22.0194C41.4189 21.7964 43.163 21.1285 44.3387 19.6322C45.4701 18.1922 46.2214 15.7966 45.0407 11.7822C44.8848 11.2523 45.188 10.6965 45.7179 10.5406Z" fill="white"/>
<path fill-rule="evenodd" clip-rule="evenodd" d="M23.682 31.7726C24.0838 31.873 24.3282 32.2802 24.2277 32.6821C24.0881 33.2405 24.2272 33.6917 24.4726 34.0568C24.643 34.3104 24.8611 34.514 25.0574 34.6571C25.1707 34.6112 25.266 34.5486 25.3448 34.4698C25.5295 34.2851 25.7501 33.8846 25.7501 33.0002C25.7501 32.7591 25.866 32.5327 26.0616 32.3917C26.2571 32.2508 26.5086 32.2124 26.7373 32.2887C26.895 32.3412 27.2141 32.401 27.5636 32.3663C27.9052 32.3325 28.2246 32.215 28.4698 31.9698C28.7627 31.677 29.2375 31.677 29.5304 31.9698C29.8233 32.2627 29.8233 32.7376 29.5304 33.0305C28.9756 33.5853 28.295 33.8012 27.7116 33.859C27.5299 33.877 27.3527 33.8803 27.1845 33.8729C27.0716 34.5685 26.8127 35.1232 26.4054 35.5305C26.1102 35.8257 25.7716 36.0089 25.4277 36.1165C25.2594 36.2331 25.0472 36.2778 24.8424 36.2336C24.7551 36.2422 24.6689 36.2472 24.5844 36.2492C24.5773 36.2597 24.5688 36.2729 24.559 36.2893C24.4701 36.4392 24.3815 36.6919 24.2902 37.0571C24.235 37.2777 24.19 37.4891 24.1426 37.7114C24.1095 37.8663 24.0754 38.0265 24.0358 38.199C23.9501 38.5732 23.8403 38.9967 23.6709 39.3356C23.3887 39.9 22.9461 40.2069 22.4816 40.3221C22.5821 40.6949 22.6669 41.0435 22.7322 41.3375C22.8221 41.7418 22.5671 42.1425 22.1628 42.2323C21.7584 42.3222 21.3578 42.0672 21.268 41.6629C21.1518 41.1401 20.9676 40.4253 20.7444 39.7292C20.5448 39.1067 20.3242 38.5322 20.1066 38.1262C20.0659 38.0504 20.0279 37.9853 19.9931 37.9302C19.9055 38.0843 19.8125 38.2964 19.7208 38.5595C19.4879 39.2276 19.3218 40.0515 19.2426 40.6062C19.184 41.0163 18.8041 41.3012 18.394 41.2426C17.984 41.1841 17.6991 40.8042 17.7576 40.3941C17.845 39.7822 18.0289 38.8561 18.3044 38.0658C18.4405 37.6755 18.614 37.2733 18.8363 36.9543C19.0359 36.6677 19.4149 36.2502 20.0001 36.2502C20.4328 36.2502 20.7466 36.5031 20.9283 36.6933C21.1239 36.898 21.2893 37.1576 21.4286 37.4175C21.6536 37.8372 21.8605 38.3529 22.0414 38.8764C22.059 38.8759 22.0764 38.8744 22.0932 38.8717C22.1389 38.8646 22.1735 38.8503 22.2029 38.8293C22.2311 38.8091 22.279 38.7654 22.3293 38.6648C22.4099 38.5036 22.4876 38.2397 22.5737 37.8639C22.6022 37.7398 22.6329 37.5967 22.6651 37.4464C22.7186 37.1969 22.7764 36.9277 22.835 36.6933C22.9312 36.3085 23.0614 35.8737 23.2693 35.5235C23.3268 35.4266 23.3974 35.3253 23.4823 35.2291C23.3932 35.1245 23.3076 35.0126 23.2276 34.8936C22.7897 34.242 22.5121 33.3598 22.7725 32.3183C22.873 31.9164 23.2802 31.6721 23.682 31.7726ZM20.1539 37.7089C20.1539 37.7092 20.1514 37.7114 20.1463 37.7148C20.1513 37.7102 20.1538 37.7085 20.1539 37.7089ZM19.8178 37.7044C19.8131 37.7013 19.8107 37.6992 19.8107 37.699C19.8107 37.6988 19.813 37.7003 19.8178 37.7044ZM24.6125 36.2137C24.6125 36.2139 24.6113 36.2152 24.6088 36.2173C24.6113 36.2146 24.6125 36.2136 24.6125 36.2137Z" fill="white"/>
<path fill-rule="evenodd" clip-rule="evenodd" d="M14.8008 33.5C15.6292 33.5 16.3008 32.8284 16.3008 32C16.3008 31.1716 15.6292 30.5 14.8008 30.5C13.9724 30.5 13.3008 31.1716 13.3008 32C13.3008 32.8284 13.9724 33.5 14.8008 33.5ZM14.8008 35C16.4576 35 17.8008 33.6569 17.8008 32C17.8008 30.3431 16.4576 29 14.8008 29C13.1439 29 11.8008 30.3431 11.8008 32C11.8008 33.6569 13.1439 35 14.8008 35Z" fill="white"/>
<path fill-rule="evenodd" clip-rule="evenodd" d="M22 27.8008C22.8284 27.8008 23.5 27.1292 23.5 26.3008C23.5 25.4724 22.8284 24.8008 22 24.8008C21.1716 24.8008 20.5 25.4724 20.5 26.3008C20.5 27.1292 21.1716 27.8008 22 27.8008ZM22 29.3008C23.6569 29.3008 25 27.9576 25 26.3008C25 24.6439 23.6569 23.3008 22 23.3008C20.3431 23.3008 19 24.6439 19 26.3008C19 27.9576 20.3431 29.3008 22 29.3008Z" fill="white"/>
<path fill-rule="evenodd" clip-rule="evenodd" d="M29.1992 22C30.0276 22 30.6992 21.3284 30.6992 20.5C30.6992 19.6716 30.0276 19 29.1992 19C28.3708 19 27.6992 19.6716 27.6992 20.5C27.6992 21.3284 28.3708 22 29.1992 22ZM29.1992 23.5C30.8561 23.5 32.1992 22.1569 32.1992 20.5C32.1992 18.8431 30.8561 17.5 29.1992 17.5C27.5424 17.5 26.1992 18.8431 26.1992 20.5C26.1992 22.1569 27.5424 23.5 29.1992 23.5Z" fill="white"/>
<path fill-rule="evenodd" clip-rule="evenodd" d="M36.3008 16.1992C37.1292 16.1992 37.8008 15.5276 37.8008 14.6992C37.8008 13.8708 37.1292 13.1992 36.3008 13.1992C35.4724 13.1992 34.8008 13.8708 34.8008 14.6992C34.8008 15.5276 35.4724 16.1992 36.3008 16.1992ZM36.3008 17.6992C37.9576 17.6992 39.3008 16.3561 39.3008 14.6992C39.3008 13.0424 37.9576 11.6992 36.3008 11.6992C34.6439 11.6992 33.3008 13.0424 33.3008 14.6992C33.3008 16.3561 34.6439 17.6992 36.3008 17.6992Z" fill="white"/>
<path fill-rule="evenodd" clip-rule="evenodd" d="M29.4918 3.97178L27.8945 5.24389C27.2464 5.75998 27.1395 6.70368 27.6556 7.35171L27.9866 7.76739C28.5027 8.41541 29.4464 8.52237 30.0944 8.00628L31.6918 6.73417C32.3398 6.21808 32.4468 5.27437 31.9307 4.62635L31.5996 4.21067C31.0835 3.56264 30.1398 3.45568 29.4918 3.97178ZM26.96 4.07053C25.6639 5.10271 25.45 6.99012 26.4822 8.28618L26.8132 8.70185C27.8454 9.99791 29.7328 10.2118 31.0289 9.17965L32.6262 7.90753C33.9223 6.87535 34.1362 4.98794 33.104 3.69188L32.773 3.27621C31.7408 1.98015 29.8534 1.76623 28.5573 2.79841L26.96 4.07053Z" fill="white"/>
<path fill-rule="evenodd" clip-rule="evenodd" d="M22.0777 9.73154L20.4804 11.0037C19.8324 11.5197 19.7254 12.4634 20.2415 13.1115L20.5725 13.5272C21.0886 14.1752 22.0323 14.2821 22.6804 13.766L24.2777 12.4939C24.9257 11.9778 25.0327 11.0341 24.5166 10.3861L24.1856 9.97044C23.6695 9.32241 22.7258 9.21545 22.0777 9.73154ZM19.5459 9.83029C18.2499 10.8625 18.036 12.7499 19.0681 14.0459L19.3992 14.4616C20.4314 15.7577 22.3188 15.9716 23.6148 14.9394L25.2122 13.6673C26.5082 12.6351 26.7222 10.7477 25.69 9.45165L25.3589 9.03598C24.3268 7.73992 22.4393 7.526 21.1433 8.55818L19.5459 9.83029Z" fill="white"/>
<path fill-rule="evenodd" clip-rule="evenodd" d="M14.7789 15.3331L13.1816 16.6052C12.5335 17.1213 12.4266 18.065 12.9427 18.713L13.2737 19.1287C13.7898 19.7767 14.7335 19.8837 15.3815 19.3676L16.9789 18.0955C17.6269 17.5794 17.7339 16.6357 17.2178 15.9877L16.8867 15.572C16.3707 14.924 15.4269 14.817 14.7789 15.3331ZM12.2471 15.4319C10.9511 16.464 10.7371 18.3514 11.7693 19.6475L12.1004 20.0632C13.1325 21.3592 15.0199 21.5732 16.316 20.541L17.9133 19.2689C19.2094 18.2367 19.4233 16.3493 18.3911 15.0532L18.0601 14.6375C17.0279 13.3415 15.1405 13.1276 13.8445 14.1597L12.2471 15.4319Z" fill="white"/>
<path fill-rule="evenodd" clip-rule="evenodd" d="M7.37852 21.2315L5.78119 22.5037C5.13316 23.0197 5.0262 23.9634 5.54229 24.6115L5.87333 25.0272C6.38942 25.6752 7.33312 25.7821 7.98116 25.266L9.57849 23.9939C10.2265 23.4778 10.3335 22.5341 9.81739 21.8861L9.48635 21.4704C8.97026 20.8224 8.02655 20.7155 7.37852 21.2315ZM4.84672 21.3303C3.55066 22.3625 3.33675 24.2499 4.36893 25.5459L4.69997 25.9616C5.73215 27.2577 7.61956 27.4716 8.91562 26.4394L10.513 25.1673C11.809 24.1351 12.0229 22.2477 10.9908 20.9516L10.6597 20.536C9.62753 19.2399 7.74012 19.026 6.44406 20.0582L4.84672 21.3303Z" fill="white"/>
</svg>
