<svg width="54" height="41" viewBox="0 0 54 41" fill="none" xmlns="http://www.w3.org/2000/svg">
<path fill-rule="evenodd" clip-rule="evenodd" d="M51.4642 23.6646C51.0058 23.2671 50.2747 22.8438 49.2513 22.4256L50.008 20.5742C51.13 21.0328 52.0841 21.5549 52.7745 22.1536C53.4596 22.7476 54 23.5229 54 24.4708C54 25.1987 53.6775 25.8308 53.2216 26.3475C52.7712 26.8579 52.1526 27.3024 51.4375 27.6944C50.0066 28.479 48.0021 29.1536 45.6107 29.7081C40.8119 30.8209 34.2325 31.4999 27 31.4999C19.7675 31.4999 13.1881 30.8209 8.38933 29.7081C5.99793 29.1536 3.99344 28.479 2.56247 27.6944C1.84742 27.3024 1.2288 26.8579 0.778423 26.3475C0.322468 25.8308 0 25.1987 0 24.4708C0 23.9019 0.245686 23.4224 0.540788 23.0515C0.834382 22.6825 1.22232 22.3618 1.63282 22.0824C2.45363 21.5237 3.53234 21.0194 4.62166 20.5742L5.37834 22.4256C4.32227 22.8572 3.40098 23.2982 2.75813 23.7358C2.43681 23.9545 2.22701 24.1445 2.10582 24.2968C2.02016 24.4045 2.00291 24.4619 2.00003 24.4752C2.00121 24.5803 2.04466 24.7597 2.27803 25.0242C2.52034 25.2988 2.92333 25.6114 3.52395 25.9407C4.72432 26.5988 6.52744 27.2233 8.84112 27.7598C13.4525 28.8292 19.8731 29.4999 27 29.4999C34.1269 29.4999 40.5475 28.8292 45.1589 27.7598C47.4726 27.2233 49.2757 26.5988 50.4761 25.9407C51.0767 25.6114 51.4797 25.2988 51.722 25.0242C51.9587 24.7559 52 24.5752 52 24.4708C52 24.3384 51.9279 24.0667 51.4642 23.6646ZM1.99952 24.4783C1.99949 24.4783 1.99954 24.4777 1.99978 24.4765Z" fill="white"/>
<path fill-rule="evenodd" clip-rule="evenodd" d="M2.97339 17.2132C2.1431 17.7811 2 18.1902 2 18.3801C2 18.6233 2.24457 19.1733 3.52947 19.8883C4.72912 20.5558 6.53132 21.1895 8.84433 21.7339C13.4545 22.8189 19.8739 23.4997 27 23.4997C34.1261 23.4997 40.5455 22.8189 45.1557 21.7339C47.4687 21.1895 49.2709 20.5558 50.4705 19.8883C51.7554 19.1733 52 18.6233 52 18.3801C52 18.1902 51.8569 17.7811 51.0266 17.2132C50.2323 16.6699 49.0098 16.1268 47.3836 15.6255C44.1449 14.627 39.5337 13.8627 34.1545 13.4974L34.29 11.502C39.7565 11.8732 44.5341 12.6541 47.9729 13.7143C49.6854 14.2422 51.1239 14.8567 52.1557 15.5624C53.1516 16.2436 54 17.175 54 18.3801C54 19.8267 52.7895 20.8866 51.443 21.6359C50.0114 22.4326 48.006 23.1177 45.6139 23.6807C40.8139 24.8104 34.2333 25.4997 27 25.4997C19.7667 25.4997 13.1861 24.8104 8.38612 23.6807C5.99405 23.1177 3.98865 22.4326 2.55695 21.6359C1.21051 20.8866 0 19.8267 0 18.3801C0 17.175 0.848414 16.2436 1.84431 15.5624C2.87614 14.8567 4.31462 14.2422 6.02715 13.7143C9.46588 12.6541 14.2435 11.8732 19.71 11.502L19.8455 13.4974C14.4663 13.8627 9.85509 14.627 6.61635 15.6255C4.99015 16.1268 3.76775 16.6699 2.97339 17.2132Z" fill="white"/>
<path fill-rule="evenodd" clip-rule="evenodd" d="M34.0501 12.2697C34.0503 12.2697 34.049 12.2721 34.0457 12.2767C34.0483 12.2721 34.0499 12.2697 34.0501 12.2697ZM33.8067 12.5C33.5737 12.3229 33.1959 12.1057 32.6391 11.8891C31.2948 11.3664 29.3018 11 27 11C24.6982 11 22.7052 11.3664 21.3609 11.8891C20.8041 12.1057 20.4263 12.3229 20.1933 12.5C20.4263 12.6771 20.8041 12.8943 21.3609 13.1109C22.7052 13.6336 24.6982 14 27 14C29.3018 14 31.2948 13.6336 32.6391 13.1109C33.1959 12.8943 33.5737 12.6771 33.8067 12.5ZM19.9499 12.2697C19.9501 12.2697 19.9517 12.2721 19.9543 12.2767C19.951 12.2721 19.9497 12.2697 19.9499 12.2697ZM19.9499 12.7303C19.9497 12.7303 19.951 12.7279 19.9543 12.7233C19.9517 12.7279 19.9501 12.7303 19.9499 12.7303ZM34.0457 12.7233C34.049 12.7279 34.0503 12.7303 34.0501 12.7303C34.0499 12.7303 34.0483 12.7279 34.0457 12.7233ZM27 16C31.9706 16 36 14.433 36 12.5C36 10.567 31.9706 9 27 9C22.0294 9 18 10.567 18 12.5C18 14.433 22.0294 16 27 16Z" fill="white"/>
<path fill-rule="evenodd" clip-rule="evenodd" d="M27 0C27.5523 0 28 0.447715 28 1V9C28 9.55229 27.5523 10 27 10C26.4477 10 26 9.55229 26 9V1C26 0.447715 26.4477 0 27 0ZM27 30C27.5523 30 28 30.4477 28 31V40C28 40.5523 27.5523 41 27 41C26.4477 41 26 40.5523 26 40V31C26 30.4477 26.4477 30 27 30Z" fill="white"/>
</svg>
