<svg width="57" height="55" viewBox="0 0 57 55" fill="none" xmlns="http://www.w3.org/2000/svg">
<path fill-rule="evenodd" clip-rule="evenodd" d="M20.5859 23.5469C22.2428 23.5469 23.5859 22.2037 23.5859 20.5469C23.5859 18.89 22.2428 17.5469 20.5859 17.5469C18.9291 17.5469 17.5859 18.89 17.5859 20.5469C17.5859 22.2037 18.9291 23.5469 20.5859 23.5469ZM20.5859 25.5469C23.3474 25.5469 25.5859 23.3083 25.5859 20.5469C25.5859 17.7855 23.3474 15.5469 20.5859 15.5469C17.8245 15.5469 15.5859 17.7855 15.5859 20.5469C15.5859 23.3083 17.8245 25.5469 20.5859 25.5469Z" fill="white"/>
<path fill-rule="evenodd" clip-rule="evenodd" d="M28.1853 22.9473C27.0121 22.9473 25.8613 22.9791 24.7397 23.0402L24.6309 21.0431C25.7889 20.98 26.9761 20.9473 28.1853 20.9473C30.2302 20.9473 32.2126 21.041 34.0979 21.2168L33.9121 23.2082C32.09 23.0382 30.1696 22.9473 28.1853 22.9473Z" fill="white"/>
<path fill-rule="evenodd" clip-rule="evenodd" d="M10.4169 26.1401C8.70534 27.0634 8.18555 27.9053 8.18555 28.4702C8.18555 28.8924 8.46554 29.4837 9.42503 30.1834C10.363 30.8674 11.7845 31.5251 13.631 32.0947C17.3119 33.23 22.4579 33.9474 28.1855 33.9474C33.9132 33.9474 39.0592 33.23 42.7401 32.0947C44.5866 31.5251 46.0081 30.8674 46.9461 30.1834C47.9056 29.4837 48.1855 28.8924 48.1855 28.4702C48.1855 27.9571 47.761 27.2048 46.332 26.354C44.9612 25.538 42.9263 24.7972 40.3739 24.2196L40.8153 22.269C43.4721 22.8701 45.7326 23.6696 47.355 24.6355C48.9192 25.5666 50.1855 26.8379 50.1855 28.4702C50.1855 29.8367 49.2903 30.9492 48.1245 31.7994C46.9371 32.6652 45.2832 33.4032 43.3295 34.0058C39.4099 35.2148 34.0559 35.9474 28.1855 35.9474C22.3152 35.9474 16.9612 35.2148 13.0416 34.0058C11.0878 33.4032 9.43397 32.6652 8.24663 31.7994C7.08081 30.9492 6.18555 29.8367 6.18555 28.4702C6.18555 26.699 7.67073 25.3491 9.46733 24.3799C11.3467 23.366 13.9631 22.5445 17.0221 21.9648L17.3945 23.9299C14.4407 24.4896 12.0457 25.2614 10.4169 26.1401Z" fill="white"/>
<path fill-rule="evenodd" clip-rule="evenodd" d="M50.1855 28.2891V47.4739C50.1855 48.8404 49.2903 49.953 48.1245 50.8031C46.9371 51.6689 45.2832 52.4069 43.3295 53.0095C39.4099 54.2185 34.0559 54.9511 28.1855 54.9511C22.3152 54.9511 16.9612 54.2185 13.0416 53.0095C11.0878 52.4069 9.43397 51.6689 8.24663 50.8031C7.08081 49.953 6.18555 48.8404 6.18555 47.4739V28.4505H8.18555V47.4739C8.18555 47.8961 8.46554 48.4874 9.42503 49.1871C10.363 49.8711 11.7845 50.5288 13.631 51.0984C17.3119 52.2337 22.4579 52.9511 28.1855 52.9511C33.9132 52.9511 39.0592 52.2337 42.7401 51.0984C44.5866 50.5288 46.0081 49.8711 46.9461 49.1871C47.9056 48.4874 48.1855 47.8961 48.1855 47.4739V28.2891H50.1855Z" fill="white"/>
<path fill-rule="evenodd" clip-rule="evenodd" d="M13.631 47.0991C17.3119 48.2344 22.4579 48.9518 28.1855 48.9518C33.9132 48.9518 39.0592 48.2344 42.7401 47.0991C44.5866 46.5295 46.0081 45.8718 46.9461 45.1878C47.9056 44.4881 48.1855 43.8968 48.1855 43.4746H50.1855C50.1855 44.8411 49.2903 45.9536 48.1245 46.8038C46.9371 47.6696 45.2832 48.4076 43.3295 49.0102C39.4099 50.2192 34.0559 50.9518 28.1855 50.9518C22.3152 50.9518 16.9612 50.2192 13.0416 49.0102C11.0878 48.4076 9.43397 47.6696 8.24663 46.8038C7.08081 45.9536 6.18555 44.8411 6.18555 43.4746H8.18555C8.18555 43.8968 8.46554 44.4881 9.42503 45.1878C10.363 45.8718 11.7845 46.5295 13.631 47.0991Z" fill="white"/>
<path fill-rule="evenodd" clip-rule="evenodd" d="M41.5487 32.7099C41.8169 32.6601 42.0911 32.7599 42.2645 32.9705L49.2645 41.4705C49.5278 41.7902 49.4821 42.2629 49.1623 42.5262C48.8426 42.7896 48.3699 42.7438 48.1066 42.4241L41.9684 34.9705L41.3971 36.6845C41.2661 37.0774 40.8414 37.2898 40.4484 37.1588C40.0554 37.0278 39.8431 36.6031 39.9741 36.2101L40.9741 33.2101C41.0603 32.9513 41.2804 32.7597 41.5487 32.7099ZM14.319 32.7093C14.5863 32.7576 14.8065 32.9466 14.8948 33.2035L19.8641 47.6596L27.5385 34.568C27.6749 34.3354 27.9257 34.1938 28.1953 34.1973C28.465 34.2009 28.712 34.3489 28.8423 34.585L36.0639 47.6743L37.9856 42.6781C38.1343 42.2914 38.5682 42.0986 38.9548 42.2473C39.3414 42.396 39.5343 42.8299 39.3856 43.2165L36.8856 49.7165C36.7809 49.9887 36.5279 50.1756 36.2369 50.1955C35.9459 50.2155 35.6698 50.065 35.5289 49.8096L28.1658 36.464L20.3326 49.8266C20.1844 50.0794 19.9026 50.2227 19.611 50.1936C19.3195 50.1644 19.0716 49.9682 18.9763 49.6911L13.9122 34.9591L7.76452 42.4241C7.5012 42.7438 7.02853 42.7896 6.70879 42.5262C6.38904 42.2629 6.3433 41.7902 6.60662 41.4705L13.6066 32.9705C13.7793 32.7609 14.0518 32.6609 14.319 32.7093Z" fill="white"/>
<path fill-rule="evenodd" clip-rule="evenodd" d="M35.5859 28.748C37.2428 28.748 38.5859 27.4049 38.5859 25.748C38.5859 24.0912 37.2428 22.748 35.5859 22.748C33.9291 22.748 32.5859 24.0912 32.5859 25.748C32.5859 27.4049 33.9291 28.748 35.5859 28.748ZM35.5859 30.748C38.3474 30.748 40.5859 28.5095 40.5859 25.748C40.5859 22.9866 38.3474 20.748 35.5859 20.748C32.8245 20.748 30.5859 22.9866 30.5859 25.748C30.5859 28.5095 32.8245 30.748 35.5859 30.748Z" fill="white"/>
<path fill-rule="evenodd" clip-rule="evenodd" d="M17.2612 16.2894L4.25848 3.3053C3.99497 3.04216 3.56803 3.04247 3.30488 3.30599C3.04174 3.5695 3.04205 3.99645 3.30557 4.25959L16.3083 17.2437L17.2612 16.2894ZM1.88966 1.89279C0.846029 2.93791 0.847244 4.63119 1.89237 5.67481L16.3103 20.0721L20.0896 16.2874L5.67168 1.89007C4.62656 0.846446 2.93329 0.847661 1.88966 1.89279Z" fill="white"/>
<path fill-rule="evenodd" clip-rule="evenodd" d="M39.8651 22.4981L52.8608 9.50696C53.1242 9.24367 53.1243 8.81673 52.861 8.55336C52.5977 8.28998 52.1708 8.28991 51.9074 8.55319L38.9117 21.5444L39.8651 22.4981ZM54.2755 7.13939C53.2313 6.09483 51.538 6.09454 50.4934 7.13873L36.0833 21.5439L39.8647 25.3265L54.2748 10.9214C55.3194 9.87722 55.3196 8.18395 54.2755 7.13939Z" fill="white"/>
</svg>
