<svg width="36" height="56" viewBox="0 0 36 56" fill="none" xmlns="http://www.w3.org/2000/svg">
<path fill-rule="evenodd" clip-rule="evenodd" d="M10.543 26.3941L4.54297 22.8941L6.05458 20.3027L12.0546 23.8027C12.7702 24.2202 13.0119 25.1386 12.5944 25.8542C12.177 26.5698 11.2585 26.8115 10.543 26.3941Z" fill="white"/>
<path fill-rule="evenodd" clip-rule="evenodd" d="M25.5547 13.3032L31.5547 16.8032L30.0431 19.3945L24.0431 15.8945C23.3275 15.4771 23.0858 14.5586 23.5032 13.8431C23.9206 13.1275 24.8391 12.8858 25.5547 13.3032Z" fill="white"/>
<path fill-rule="evenodd" clip-rule="evenodd" d="M13.1426 21.7945L7.14258 18.2945L8.65419 15.7031L14.6542 19.2031C15.3698 19.6205 15.6115 20.539 15.1941 21.2546C14.7766 21.9702 13.8582 22.2119 13.1426 21.7945Z" fill="white"/>
<path fill-rule="evenodd" clip-rule="evenodd" d="M22.9531 17.9028L28.9531 21.4028L27.4415 23.9941L21.4415 20.4941C20.7259 20.0767 20.4842 19.1582 20.9017 18.4427C21.3191 17.7271 22.2375 17.4854 22.9531 17.9028Z" fill="white"/>
<path fill-rule="evenodd" clip-rule="evenodd" d="M15.7422 17.1949L9.74219 13.6949L11.2538 11.1035L17.2538 14.6035C17.9694 15.0209 18.2111 15.9394 17.7937 16.655C17.3762 17.3706 16.4578 17.6123 15.7422 17.1949Z" fill="white"/>
<path fill-rule="evenodd" clip-rule="evenodd" d="M20.2539 22.4028L26.2539 25.9028L24.7423 28.4941L18.7423 24.9941C18.0267 24.5767 17.785 23.6582 18.2024 22.9427C18.6199 22.2271 19.5383 21.9854 20.2539 22.4028Z" fill="white"/>
<path fill-rule="evenodd" clip-rule="evenodd" d="M18.4414 12.6949L12.4414 9.19485L13.953 6.60352L19.953 10.1035C20.6686 10.5209 20.9103 11.4394 20.4929 12.155C20.0755 12.8706 19.157 13.1123 18.4414 12.6949Z" fill="white"/>
<path fill-rule="evenodd" clip-rule="evenodd" d="M18.681 5.03885L19.6568 3.38766L22.2395 4.91393L21.2637 6.56512C20.8422 7.27833 19.9224 7.51482 19.2092 7.09336C18.496 6.67189 18.2595 5.75206 18.681 5.03885Z" fill="white"/>
<path fill-rule="evenodd" clip-rule="evenodd" d="M23.2318 7.68925L24.2075 6.03805L26.7903 7.56432L25.8145 9.21551C25.393 9.92872 24.4732 10.1652 23.76 9.74375C23.0468 9.32228 22.8103 8.40245 23.2318 7.68925Z" fill="white"/>
<path fill-rule="evenodd" clip-rule="evenodd" d="M27.8509 10.2889L28.8267 8.63766L31.4094 10.1639L30.4336 11.8151C30.0122 12.5283 29.0923 12.7648 28.3791 12.3434C27.6659 11.9219 27.4294 11.0021 27.8509 10.2889Z" fill="white"/>
<path fill-rule="evenodd" clip-rule="evenodd" d="M17.5547 27.0044L23.5547 30.5044L22.0431 33.0957L16.0431 29.5957C15.3275 29.1783 15.0858 28.2598 15.5032 27.5442C15.9206 26.8287 16.8391 26.5869 17.5547 27.0044Z" fill="white"/>
<path fill-rule="evenodd" clip-rule="evenodd" d="M5.99805 54V41H3.99805V54.6C3.99805 55.3732 4.62485 56 5.39805 56H9.59805C10.3712 56 10.998 55.3732 10.998 54.6V41H8.99805V54H5.99805Z" fill="white"/>
<path fill-rule="evenodd" clip-rule="evenodd" d="M6.45117 29.5039L15.3731 34.6762L11.7842 40.8668C10.3992 43.2558 7.33984 44.0697 4.95085 42.6847L4.68024 42.5278C2.29125 41.1428 1.47733 38.0834 2.86231 35.6944L6.45117 29.5039ZM7.17834 32.2373L4.59257 36.6975C3.76159 38.1309 4.24994 39.9666 5.68333 40.7976L5.95394 40.9544C7.38733 41.7854 9.22298 41.2971 10.054 39.8637L12.6397 35.4034L7.17834 32.2373Z" fill="white"/>
<path fill-rule="evenodd" clip-rule="evenodd" d="M14.0626 4.478C15.4476 2.08901 18.507 1.27509 20.896 2.66007L31.5958 8.86312C33.9848 10.2481 34.7987 13.3075 33.4137 15.6965L22.1419 35.1396C20.7569 37.5286 17.6975 38.3426 15.3085 36.9576L4.60869 30.7545C2.2197 29.3695 1.40578 26.3101 2.79076 23.9211L14.0626 4.478ZM19.8929 4.39033C18.4595 3.55935 16.6238 4.0477 15.7928 5.48109L4.52102 24.9242C3.69003 26.3576 4.17838 28.1933 5.61178 29.0243L16.3116 35.2273C17.745 36.0583 19.5807 35.5699 20.4117 34.1365L31.6835 14.6934C32.5145 13.26 32.0261 11.4244 30.5927 10.5934L19.8929 4.39033Z" fill="white"/>
<path d="M8.44727 38.0996C8.44727 38.6519 7.99955 39.0996 7.44727 39.0996C6.89498 39.0996 6.44727 38.6519 6.44727 38.0996C6.44727 37.5473 6.89498 37.0996 7.44727 37.0996C7.99955 37.0996 8.44727 37.5473 8.44727 38.0996Z" fill="white"/>
</svg>
